# xmcd
#
# Track frame offsets:
#	150
#	17291
#	29623
#	38081
#	49741
#	59992
#	70359
#	87656
#	98929
#	112619
#	123189
#	136957
#	150878
#	163122
#	174687
#
# Disc length: 2475 seconds
# Revision: 1
# Processed by: cddbd v1.5.2PL0 Copyright (c) Steve Scherf et al.
# Submitted via: dBpowerAMP V12.0
#
DISCID=c409a90f
DTITLE=Various Artist - The Poet Of The Blues disc 05 Otis Rush, The Clouds, Shakey Horton And More
DYEAR=2011
DGENRE=Blues
TTITLE0=Otis Rush - I Can't Quit You Baby
TTITLE1=Louis Mayers And The Aces - Just Whalin'
TTITLE2=Otis Rush - Sit Down Baby
TTITLE3=The Clouds - Rock 'n' Roll Boogie
TTITLE4=Shakey Horton - Need My Baby
TTITLE5=Shakey Horton - Have A Good Time
TTITLE6=Otis Rush - My Love Will Never Die
TTITLE7=Otis Rush - Violent Love
TTITLE8=Sunnyland Slim - Highway 61
TTITLE9=Sunnyland Slim - It's You Baby
TTITLE10=Otis Rush - Groanin' The Blues
TTITLE11=Otis Rush - If You Were Mine
TTITLE12=Little Willie Foster - Crying The BLues
TTITLE13=Little Willie Foster - Little Girl
TTITLE14=Harold Burrage - I Don't Care Who Knows
EXTD=
EXTT0=
EXTT1=
EXTT2=
EXTT3=
EXTT4=
EXTT5=
EXTT6=
EXTT7=
EXTT8=
EXTT9=
EXTT10=
EXTT11=
EXTT12=
EXTT13=
EXTT14=
PLAYORDER=
